
<svg xmlns="http://www.w3.org/2000/svg" viewBox="0 0 320 320">

<g transform="translate(160,120)">
  
  <path d="M -104.19109297865847 0
  a 104.19109297865847 104.19109297865847 0 0 1 208.38218595731695 0
  L 83.2297597378339 100
  L 67.29437451715089 140
  L 16.148135089754135 180
  L -16.148135089754135 180
  L -67.29437451715089 140
  L -83.2297597378339 100" fill="#a66472"></path>

  
  <path d="M 23.750750387086256 40
  a 38.66873461077367 38.66873461077367 0 0 1 50 0
  a 120 120 0 0 0 -50 0" fill="#4a303e"></path>

  
  <path d="M 23.750750387086256 40
  a 38.66873461077367 38.66873461077367 0 0 1 50 0
  a 120 120 0 0 0 -50 0" transform="scale(-1,1)" fill="#4a303e"></path>

  
  <path d="M 23.750750387086256 12.128927784498572
  L 54.42646306809926 5.163777995637412
  L 70 17.128927784498572" stroke-linejoin="bevel" stroke-linecap="round" stroke-width="5" stroke="#4a303e" fill="none"></path>

  
  <path d="M 23.750750387086256 12.128927784498572
  L 54.42646306809926 9.439377059047004
  L 70 17.128927784498572" stroke-linejoin="bevel" stroke-linecap="round" transform="scale(-1,1)" stroke-width="5" stroke="#4a303e" fill="none"></path>

  
  <path d="M 0 101.86224745934085
  m -5 -5
  a 6 6 0 0 0 10 0
  m -5 0
  a 15 15 0 0 0 20 -2
  m -20 2
  a 15 15 0 0 1 -20 -2" stroke-width="5" stroke="#4a303e" fill="none"></path>

  
  <path d="M 0 128.02147651385792
  m -44.909940346036834 0
  a 70 70 0 0 0 89.81988069207367 0
  a 109.90994034603683 109.90994034603683 0 0 0 -39.909940346036834 -3
  l -5 2
  l -5 -2
  a 109.90994034603683 109.90994034603683 0 0 0 -39.909940346036834 3
  a 70 70 0 0 0 89.81988069207367 0" stroke-linejoin="miter" stroke-width="5" stroke="#4a303e" fill="#4a303e"></path>

</g>

</svg>
